<svg width="55" height="55" viewBox="0 0 55 55" fill="none" xmlns="http://www.w3.org/2000/svg">
<path d="M23.7978 4.73677C26.1808 3.82016 28.8192 3.82016 31.2022 4.73677L48.2591 11.2955C49.2315 11.67 50.0676 12.3302 50.6573 13.1893C51.247 14.0484 51.5626 15.066 51.5625 16.108V38.8849C51.5626 39.9269 51.247 40.9445 50.6573 41.8036C50.0676 42.6627 49.2315 43.323 48.2591 43.6974L31.2022 50.2596C28.8192 51.1762 26.1808 51.1762 23.7978 50.2596L6.74437 43.6974C5.77131 43.3235 4.93443 42.6635 4.34408 41.8044C3.75372 40.9452 3.43764 39.9273 3.4375 38.8849V16.108C3.43764 15.0656 3.75372 14.0477 4.34408 13.1886C4.93443 12.3294 5.77131 11.6694 6.74437 11.2955L23.7978 4.73677ZM29.9681 7.94396C28.3794 7.33289 26.6206 7.33289 25.0319 7.94396L20.2744 9.77615L39.49 17.0499L46.1862 14.183L29.9681 7.94396ZM48.125 17.0877L29.2188 25.1968V47.293C29.4708 47.2289 29.7206 47.1487 29.9681 47.0524L47.025 40.4937C47.3491 40.3686 47.6277 40.1482 47.8241 39.8617C48.0204 39.5751 48.1254 39.2357 48.125 38.8883V17.0877ZM25.7812 47.2896V25.1968L6.875 17.0912V38.8849C6.87464 39.2323 6.97955 39.5717 7.17592 39.8582C7.37229 40.1448 7.65089 40.3652 7.975 40.4902L25.0319 47.049C25.2771 47.1452 25.5269 47.2254 25.7812 47.2896ZM8.81375 14.183L27.5 22.1924L34.9387 19.0024L15.4584 11.6255L8.81375 14.183Z" fill="#5F5F5F"/>
</svg>
