<svg width="50" height="50" viewBox="0 0 50 50" fill="none" xmlns="http://www.w3.org/2000/svg">
<g clip-path="url(#clip0_1_462)">
<path d="M12.0521 7.1123C12.9494 6.58705 13.8814 6.12348 14.8417 5.7248C16.8565 4.87435 18.9894 4.33689 21.1667 4.13105L23.5146 6.78522L22.4208 9.53313C20.3009 9.9447 18.2704 10.7276 16.4229 11.8456L16.0167 12.0956L15.6458 8.47688L12.0521 7.10188V7.1123ZM11.0313 7.75813L14.7583 9.19563L15.15 12.7581C13.1342 14.2374 11.5141 16.1909 10.4333 18.4456C10.3282 18.6499 10.2316 18.8584 10.1438 19.0706L7.51875 15.8852L3.23959 16.7894C4.302 14.4991 5.75652 12.4122 7.5375 10.6227C8.60973 9.5366 9.76737 8.58105 11.0104 7.75605L11.0313 7.75813ZM35.5771 32.8665C35.9827 32.1928 36.316 31.5053 36.5771 30.804L40.6146 35.6998L47.3959 34.2394C47.0029 35.314 46.5423 36.3626 46.0167 37.3789C44.6403 40.0423 42.7678 42.4182 40.5 44.3789C38.2103 46.3659 35.5361 47.8601 32.6438 48.7685L32.4708 48.8227L27.4479 44.5748L28.7583 38.7935L28.8646 38.7498C31.7375 37.4998 33.9833 35.5644 35.5813 32.8435V32.8665H35.5771ZM44.0688 10.0102C44.4833 10.579 44.8688 11.1769 45.2417 11.7894C46.7757 14.368 47.8599 17.1888 48.4479 20.131C49.0125 23.0685 49.1042 26.0248 48.6979 28.9894C48.4863 30.403 48.163 31.7976 47.7313 33.1602L40.95 34.6164L36.8875 29.706C37.3665 27.86 37.4093 25.9278 37.0125 24.0623C36.5827 21.8372 35.5326 19.7788 33.9833 18.1248L41.2938 17.2498L44.0146 10.0081L44.0688 10.0102ZM2.7875 17.8831L7.1625 16.9581L9.7375 20.1019C8.92292 22.3602 8.7375 24.706 9.14375 27.1435C9.2375 27.8394 9.39167 28.5102 9.58125 29.1623L4.95625 28.1102L1.64375 32.0289C1.24555 30.2835 1.04774 28.4984 1.05417 26.7081C1.05833 23.6859 1.61875 20.7699 2.73542 17.9602L2.76875 17.879L2.7875 17.8831ZM9.95834 30.2456C10.6314 32.021 11.6265 33.6568 12.8938 35.0706C13.8625 36.1935 14.9563 37.1019 16.15 37.8185L11.5667 40.4456L11.8167 46.4123C10.2999 45.4671 8.90117 44.3446 7.65 43.0685C5.54381 40.9165 3.88667 38.367 2.775 35.5685C2.46459 34.7873 2.2125 34.006 1.99375 33.2248L5.4 29.2269L10.025 30.2873L9.95834 30.2456ZM17.15 38.3644C18.1361 38.856 19.1903 39.231 20.3125 39.4894C22.7429 40.0763 25.2888 39.9746 27.6646 39.1956L26.3625 44.9394L31.3354 49.1477C28.8491 49.7978 26.2807 50.0793 23.7125 49.9831C19.8935 49.8698 16.1569 48.8448 12.8146 46.9935L12.5667 40.9894L17.15 38.3644ZM43.3646 9.09146L40.6292 16.354L33.1 17.2602C32.8855 17.0676 32.6578 16.8901 32.4188 16.729C30.0008 14.8748 27.1103 13.7378 24.0771 13.4477C23.3563 13.3873 22.6708 13.3873 22.0146 13.3873L24.6396 6.66647L18.9583 0.19772C20.6813 0.0102203 22.3688 -0.0189463 24.0813 0.0102203C25.1007 0.039387 26.1139 0.117859 27.1208 0.245637C28.5375 0.431053 29.9354 0.743553 31.3188 1.12064C34.2458 1.95397 36.9125 3.2748 39.3229 5.14147C40.8252 6.28952 42.1824 7.61591 43.3646 9.09146Z" fill="#747474"/>
</g>
<defs>
<clipPath id="clip0_1_462">
<rect width="50" height="50" fill="white"/>
</clipPath>
</defs>
</svg>
