<svg width="55" height="55" viewBox="0 0 55 55" fill="none" xmlns="http://www.w3.org/2000/svg">
<path d="M27.5 3.4375C14.2119 3.4375 3.4375 14.2119 3.4375 27.5C3.4375 40.7881 14.2119 51.5625 27.5 51.5625C40.7881 51.5625 51.5625 40.7881 51.5625 27.5C51.5625 14.2119 40.7881 3.4375 27.5 3.4375ZM27.5 47.4805C16.4678 47.4805 7.51953 38.5322 7.51953 27.5C7.51953 16.4678 16.4678 7.51953 27.5 7.51953C38.5322 7.51953 47.4805 16.4678 47.4805 27.5C47.4805 38.5322 38.5322 47.4805 27.5 47.4805ZM30.062 26.2539L28.6978 25.937V18.7236C30.7388 19.0029 32.001 20.2812 32.2158 21.8496C32.2427 22.0645 32.4253 22.2202 32.6401 22.2202H35.0518C35.3042 22.2202 35.5029 22 35.4814 21.7476C35.1538 18.4014 32.3984 16.2529 28.7192 15.8823V14.126C28.7192 13.8896 28.5259 13.6963 28.2896 13.6963H26.7803C26.5439 13.6963 26.3506 13.8896 26.3506 14.126V15.8984C22.5479 16.269 19.5723 18.3691 19.5723 22.29C19.5723 25.9209 22.2471 27.6719 25.0562 28.3433L26.3828 28.6816V36.3462C24.0088 36.0293 22.6768 34.7617 22.4028 33.0537C22.3706 32.8496 22.188 32.6992 21.9785 32.6992H19.4971C19.2446 32.6992 19.0459 32.9141 19.0674 33.1665C19.3091 36.1206 21.5488 38.8384 26.3291 39.1875V40.874C26.3291 41.1104 26.5225 41.3037 26.7588 41.3037H28.2842C28.5205 41.3037 28.7139 41.1104 28.7139 40.8687L28.7031 39.166C32.9087 38.7954 35.9165 36.5449 35.9165 32.5059C35.9111 28.7783 33.5425 27.1133 30.062 26.2539ZM26.3774 25.3838C26.0767 25.2979 25.8242 25.2173 25.5718 25.1152C23.7563 24.46 22.9131 23.4019 22.9131 22.0376C22.9131 20.0879 24.3901 18.9761 26.3774 18.7236V25.3838ZM28.6978 36.3623V29.1812C28.8643 29.2295 29.0146 29.2671 29.1704 29.2993C31.7109 30.0728 32.5649 31.147 32.5649 32.7959C32.5649 34.896 30.9858 36.1582 28.6978 36.3623Z" fill="#5F5F5F"/>
</svg>
