<svg width="190" height="62" viewBox="0 0 190 62" fill="none" xmlns="http://www.w3.org/2000/svg">
<g clip-path="url(#clip0_1_20)">
<path d="M12.0521 13.1125C12.9494 12.5873 13.8814 12.1237 14.8417 11.725C16.8565 10.8745 18.9894 10.3371 21.1667 10.1312L23.5146 12.7854L22.4208 15.5333C20.3009 15.9449 18.2704 16.7278 16.4229 17.8458L16.0167 18.0958L15.6458 14.4771L12.0521 13.1021V13.1125ZM11.0313 13.7583L14.7583 15.1958L15.15 18.7583C13.1342 20.2376 11.5141 22.1911 10.4333 24.4458C10.3282 24.6501 10.2316 24.8586 10.1438 25.0708L7.51875 21.8854L3.23959 22.7896C4.302 20.4993 5.75652 18.4124 7.5375 16.6229C8.60973 15.5368 9.76737 14.5812 11.0104 13.7562L11.0313 13.7583ZM35.5771 38.8666C35.9827 38.193 36.316 37.5055 36.5771 36.8041L40.6146 41.7L47.3959 40.2396C47.0029 41.3142 46.5423 42.3628 46.0167 43.3791C44.6403 46.0425 42.7678 48.4184 40.5 50.3791C38.2103 52.3661 35.5361 53.8603 32.6438 54.7687L32.4708 54.8229L27.4479 50.575L28.7583 44.7937L28.8646 44.75C31.7375 43.5 33.9833 41.5646 35.5813 38.8437V38.8666H35.5771ZM44.0688 16.0104C44.4833 16.5792 44.8688 17.1771 45.2417 17.7896C46.7757 20.3682 47.8599 23.189 48.4479 26.1312C49.0125 29.0687 49.1042 32.025 48.6979 34.9896C48.4863 36.4032 48.163 37.7978 47.7313 39.1604L40.95 40.6166L36.8875 35.7062C37.3665 33.8602 37.4093 31.928 37.0125 30.0625C36.5827 27.8373 35.5326 25.779 33.9833 24.125L41.2938 23.25L44.0146 16.0083L44.0688 16.0104ZM2.7875 23.8833L7.1625 22.9583L9.7375 26.1021C8.92292 28.3604 8.7375 30.7062 9.14375 33.1437C9.2375 33.8396 9.39167 34.5104 9.58125 35.1625L4.95625 34.1104L1.64375 38.0291C1.24555 36.2837 1.04774 34.4986 1.05417 32.7083C1.05833 29.6861 1.61875 26.7701 2.73542 23.9604L2.76875 23.8792L2.7875 23.8833ZM9.95834 36.2458C10.6314 38.0212 11.6265 39.657 12.8938 41.0708C13.8625 42.1937 14.9563 43.1021 16.15 43.8187L11.5667 46.4458L11.8167 52.4125C10.2999 51.4673 8.90117 50.3448 7.65 49.0687C5.54381 46.9167 3.88667 44.3672 2.775 41.5687C2.46459 40.7875 2.2125 40.0062 1.99375 39.225L5.4 35.2271L10.025 36.2875L9.95834 36.2458ZM17.15 44.3646C18.1361 44.8562 19.1903 45.2312 20.3125 45.4896C22.7429 46.0765 25.2888 45.9748 27.6646 45.1958L26.3625 50.9396L31.3354 55.1479C28.8491 55.798 26.2807 56.0795 23.7125 55.9833C19.8935 55.87 16.1569 54.845 12.8146 52.9937L12.5667 46.9896L17.15 44.3646ZM43.3646 15.0917L40.6292 22.3542L33.1 23.2604C32.8855 23.0678 32.6578 22.8903 32.4188 22.7292C30.0008 20.875 27.1103 19.738 24.0771 19.4479C23.3563 19.3875 22.6708 19.3875 22.0146 19.3875L24.6396 12.6667L18.9583 6.19792C20.6813 6.01042 22.3688 5.98125 24.0813 6.01042C25.1007 6.03959 26.1139 6.11806 27.1208 6.24584C28.5375 6.43125 29.9354 6.74375 31.3188 7.12083C34.2458 7.95417 36.9125 9.275 39.3229 11.1417C40.8252 12.2897 42.1824 13.6161 43.3646 15.0917Z" fill="#FA6B1C"/>
</g>
<path d="M81.3855 46.312V56H80.1115V48.776L76.8915 56H75.9955L72.7615 48.762V56H71.4875V46.312H72.8595L76.4435 54.32L80.0275 46.312H81.3855ZM90.2101 56.098C89.3048 56.098 88.4788 55.888 87.7321 55.468C86.9854 55.0387 86.3928 54.446 85.9541 53.69C85.5248 52.9247 85.3101 52.066 85.3101 51.114C85.3101 50.162 85.5248 49.308 85.9541 48.552C86.3928 47.7867 86.9854 47.194 87.7321 46.774C88.4788 46.3447 89.3048 46.13 90.2101 46.13C91.1248 46.13 91.9554 46.3447 92.7021 46.774C93.4488 47.194 94.0368 47.782 94.4661 48.538C94.8954 49.294 95.1101 50.1527 95.1101 51.114C95.1101 52.0753 94.8954 52.934 94.4661 53.69C94.0368 54.446 93.4488 55.0387 92.7021 55.468C91.9554 55.888 91.1248 56.098 90.2101 56.098ZM90.2101 54.992C90.8914 54.992 91.5028 54.8333 92.0441 54.516C92.5948 54.1987 93.0241 53.746 93.3321 53.158C93.6494 52.57 93.8081 51.8887 93.8081 51.114C93.8081 50.33 93.6494 49.6487 93.3321 49.07C93.0241 48.482 92.5994 48.0293 92.0581 47.712C91.5168 47.3947 90.9008 47.236 90.2101 47.236C89.5194 47.236 88.9034 47.3947 88.3621 47.712C87.8208 48.0293 87.3914 48.482 87.0741 49.07C86.7661 49.6487 86.6121 50.33 86.6121 51.114C86.6121 51.8887 86.7661 52.57 87.0741 53.158C87.3914 53.746 87.8208 54.1987 88.3621 54.516C88.9128 54.8333 89.5288 54.992 90.2101 54.992ZM103.918 50.974C104.273 51.03 104.595 51.1747 104.884 51.408C105.183 51.6413 105.416 51.9307 105.584 52.276C105.761 52.6213 105.85 52.99 105.85 53.382C105.85 53.8767 105.724 54.3247 105.472 54.726C105.22 55.118 104.851 55.4307 104.366 55.664C103.89 55.888 103.325 56 102.672 56H99.0319V46.242H102.532C103.195 46.242 103.759 46.354 104.226 46.578C104.693 46.7927 105.043 47.0867 105.276 47.46C105.509 47.8333 105.626 48.2533 105.626 48.72C105.626 49.2987 105.467 49.7793 105.15 50.162C104.842 50.5353 104.431 50.806 103.918 50.974ZM100.306 50.456H102.448C103.045 50.456 103.507 50.316 103.834 50.036C104.161 49.756 104.324 49.3687 104.324 48.874C104.324 48.3793 104.161 47.992 103.834 47.712C103.507 47.432 103.036 47.292 102.42 47.292H100.306V50.456ZM102.56 54.95C103.195 54.95 103.689 54.8007 104.044 54.502C104.399 54.2033 104.576 53.788 104.576 53.256C104.576 52.7147 104.389 52.29 104.016 51.982C103.643 51.6647 103.143 51.506 102.518 51.506H100.306V54.95H102.56ZM111.132 46.242V56H109.858V46.242H111.132ZM116.817 54.964H120.233V56H115.543V46.242H116.817V54.964ZM125.1 47.278V50.54H128.656V51.59H125.1V54.95H129.076V56H123.826V46.228H129.076V47.278H125.1ZM142.31 56.098C141.666 56.098 141.088 55.986 140.574 55.762C140.07 55.5287 139.674 55.2113 139.384 54.81C139.095 54.3993 138.946 53.928 138.936 53.396H140.294C140.341 53.8533 140.528 54.2407 140.854 54.558C141.19 54.866 141.676 55.02 142.31 55.02C142.917 55.02 143.393 54.8707 143.738 54.572C144.093 54.264 144.27 53.872 144.27 53.396C144.27 53.0227 144.168 52.7193 143.962 52.486C143.757 52.2527 143.5 52.0753 143.192 51.954C142.884 51.8327 142.469 51.702 141.946 51.562C141.302 51.394 140.784 51.226 140.392 51.058C140.01 50.89 139.678 50.6287 139.398 50.274C139.128 49.91 138.992 49.4247 138.992 48.818C138.992 48.286 139.128 47.8147 139.398 47.404C139.669 46.9933 140.047 46.676 140.532 46.452C141.027 46.228 141.592 46.116 142.226 46.116C143.141 46.116 143.888 46.3447 144.466 46.802C145.054 47.2593 145.386 47.866 145.46 48.622H144.06C144.014 48.2487 143.818 47.922 143.472 47.642C143.127 47.3527 142.67 47.208 142.1 47.208C141.568 47.208 141.134 47.348 140.798 47.628C140.462 47.8987 140.294 48.2813 140.294 48.776C140.294 49.1307 140.392 49.42 140.588 49.644C140.794 49.868 141.041 50.0407 141.33 50.162C141.629 50.274 142.044 50.4047 142.576 50.554C143.22 50.7313 143.738 50.9087 144.13 51.086C144.522 51.254 144.858 51.52 145.138 51.884C145.418 52.2387 145.558 52.724 145.558 53.34C145.558 53.816 145.432 54.264 145.18 54.684C144.928 55.104 144.555 55.4447 144.06 55.706C143.566 55.9673 142.982 56.098 142.31 56.098ZM155.679 46.242V47.278H153.019V56H151.745V47.278H149.071V46.242H155.679ZM163.911 56.098C163.006 56.098 162.18 55.888 161.433 55.468C160.687 55.0387 160.094 54.446 159.655 53.69C159.226 52.9247 159.011 52.066 159.011 51.114C159.011 50.162 159.226 49.308 159.655 48.552C160.094 47.7867 160.687 47.194 161.433 46.774C162.18 46.3447 163.006 46.13 163.911 46.13C164.826 46.13 165.657 46.3447 166.403 46.774C167.15 47.194 167.738 47.782 168.167 48.538C168.597 49.294 168.811 50.1527 168.811 51.114C168.811 52.0753 168.597 52.934 168.167 53.69C167.738 54.446 167.15 55.0387 166.403 55.468C165.657 55.888 164.826 56.098 163.911 56.098ZM163.911 54.992C164.593 54.992 165.204 54.8333 165.745 54.516C166.296 54.1987 166.725 53.746 167.033 53.158C167.351 52.57 167.509 51.8887 167.509 51.114C167.509 50.33 167.351 49.6487 167.033 49.07C166.725 48.482 166.301 48.0293 165.759 47.712C165.218 47.3947 164.602 47.236 163.911 47.236C163.221 47.236 162.605 47.3947 162.063 47.712C161.522 48.0293 161.093 48.482 160.775 49.07C160.467 49.6487 160.313 50.33 160.313 51.114C160.313 51.8887 160.467 52.57 160.775 53.158C161.093 53.746 161.522 54.1987 162.063 54.516C162.614 54.8333 163.23 54.992 163.911 54.992ZM177.871 56L175.547 52.01H174.007V56H172.733V46.242H175.883C176.621 46.242 177.241 46.368 177.745 46.62C178.259 46.872 178.641 47.2127 178.893 47.642C179.145 48.0713 179.271 48.5613 179.271 49.112C179.271 49.784 179.075 50.3767 178.683 50.89C178.301 51.4033 177.722 51.744 176.947 51.912L179.397 56H177.871ZM174.007 50.988H175.883C176.574 50.988 177.092 50.82 177.437 50.484C177.783 50.1387 177.955 49.6813 177.955 49.112C177.955 48.5333 177.783 48.0853 177.437 47.768C177.101 47.4507 176.583 47.292 175.883 47.292H174.007V50.988ZM184.765 47.278V50.54H188.321V51.59H184.765V54.95H188.741V56H183.491V46.228H188.741V47.278H184.765Z" fill="#4C4C4C"/>
<path d="M85.3382 18.076C85.4316 18.636 85.4969 19.2427 85.5342 19.896C85.5902 20.5493 85.5902 21.3427 85.5342 22.276C85.4782 23.1907 85.3476 24.32 85.1422 25.664C84.8622 27.4747 84.1249 28.996 82.9302 30.228C81.7356 31.4413 80.2329 32.2347 78.4222 32.608C77.9182 32.72 77.3302 32.804 76.6582 32.86C75.9862 32.8973 75.3142 32.9347 74.6422 32.972C73.9889 32.9907 73.4009 33.0187 72.8782 33.056C72.4116 33.1493 71.8516 33.2147 71.1982 33.252C70.5449 33.2893 69.9289 33.28 69.3502 33.224C68.7716 33.168 68.3516 33.0653 68.0902 32.916C68.2396 32.6547 68.3609 32.2627 68.4542 31.74C68.5476 31.1987 68.6222 30.6107 68.6782 29.976C68.7342 29.3413 68.7529 28.7347 68.7342 28.156L68.6502 18.664C68.6502 17.8987 68.6409 17.1987 68.6222 16.564C68.6222 15.9293 68.6036 15.4347 68.5662 15.08C68.5289 14.688 68.3796 14.3427 68.1182 14.044C67.8756 13.7453 67.6982 13.4467 67.5862 13.148C67.2876 12.3267 67.1569 11.524 67.1942 10.74C67.2876 10.7587 67.4929 10.7867 67.8102 10.824C68.1462 10.8427 68.5289 10.8707 68.9582 10.908C69.4249 10.9267 70.1529 10.9547 71.1422 10.992C72.1502 11.0293 73.1769 11.0667 74.2222 11.104C74.2222 11.104 74.3716 11.1133 74.6702 11.132C74.9876 11.132 75.3796 11.1507 75.8462 11.188C76.3129 11.2253 76.7982 11.2813 77.3022 11.356C77.8062 11.412 78.2449 11.4867 78.6182 11.58C79.8316 11.8973 80.8489 12.336 81.6702 12.896C82.5102 13.4373 83.1822 14.0253 83.6862 14.66C84.2089 15.2947 84.6009 15.92 84.8622 16.536C85.1236 17.1333 85.2822 17.6467 85.3382 18.076ZM75.5662 27.68C76.3316 27.4933 77.0502 27.1293 77.7222 26.588C78.4129 26.028 78.9542 25.2813 79.3462 24.348C79.7569 23.396 79.9062 22.2387 79.7942 20.876C79.6636 19.1027 79.1969 17.8707 78.3942 17.18C77.6102 16.4893 76.5836 16.1347 75.3142 16.116C74.9596 16.0973 74.6796 16.3307 74.4742 16.816C74.2689 17.3013 74.1289 18.0853 74.0542 19.168C74.0169 19.8773 73.9889 20.4093 73.9702 20.764C73.9516 21.1 73.9422 21.38 73.9422 21.604C73.9609 21.828 73.9609 22.1173 73.9422 22.472C73.9422 22.472 73.9422 22.64 73.9422 22.976C73.9609 23.312 73.9889 23.732 74.0262 24.236C74.0636 24.7213 74.1102 25.2253 74.1662 25.748C74.2222 26.252 74.2876 26.6813 74.3622 27.036C74.4556 27.428 74.6329 27.652 74.8942 27.708C75.1556 27.7453 75.3796 27.736 75.5662 27.68ZM90.6108 33.14C89.8828 32.9347 89.2854 32.4867 88.8188 31.796C88.3521 31.1053 88.0254 30.3773 87.8388 29.612C87.8014 29.444 87.8388 29.164 87.9508 28.772C88.0814 28.38 88.2588 27.9693 88.4828 27.54C88.7254 27.1107 88.9961 26.7653 89.2948 26.504C89.4068 26.784 89.5561 27.036 89.7428 27.26C89.9294 27.484 90.1348 27.624 90.3588 27.68C90.5828 27.736 90.7881 27.652 90.9748 27.428C91.1241 27.2227 91.2268 26.7933 91.2828 26.14C91.3574 25.4867 91.3854 24.684 91.3668 23.732C91.3668 22.7613 91.3388 21.7253 91.2828 20.624C91.2268 19.5227 91.1614 18.4307 91.0868 17.348C91.0121 16.2467 90.9281 15.2387 90.8347 14.324C90.7601 13.3907 90.6854 12.6253 90.6108 12.028C90.5548 11.412 90.5174 11.0387 90.4988 10.908C90.7788 10.852 91.2081 10.8427 91.7868 10.88C92.3841 10.8987 93.0094 10.992 93.6628 11.16C94.3161 11.3093 94.8854 11.5707 95.3708 11.944C95.8561 12.2987 96.1361 12.7933 96.2108 13.428C96.2481 13.7827 96.2761 14.38 96.2948 15.22C96.3321 16.06 96.3601 17.04 96.3788 18.16C96.3974 19.2613 96.4068 20.4187 96.4068 21.632C96.4254 22.8267 96.4254 23.9747 96.4068 25.076C96.4068 26.1773 96.3974 27.1387 96.3788 27.96C96.3601 28.7813 96.3321 29.3507 96.2948 29.668C96.2201 30.4707 95.9028 31.1893 95.3428 31.824C94.8014 32.44 94.1108 32.8787 93.2708 33.14C92.4494 33.4013 91.5628 33.4013 90.6108 33.14ZM101.803 16.34C101.168 16.3587 100.599 16.1813 100.095 15.808C99.6095 15.4347 99.2362 14.9773 98.9749 14.436C98.7322 13.876 98.6389 13.344 98.6949 12.84C98.7882 12.0747 99.1335 11.5333 99.7309 11.216C100.328 10.8987 100.954 10.7307 101.607 10.712C102.54 10.6747 103.268 10.9173 103.791 11.44C104.314 11.9627 104.575 12.56 104.575 13.232C104.575 13.68 104.472 14.1373 104.267 14.604C104.08 15.0707 103.782 15.472 103.371 15.808C102.96 16.1253 102.438 16.3027 101.803 16.34ZM104.771 30.172C104.79 30.508 104.892 30.7973 105.079 31.04C105.284 31.264 105.527 31.4787 105.807 31.684C105.676 31.852 105.508 32.0293 105.303 32.216C105.098 32.4027 104.79 32.58 104.379 32.748C103.987 32.8973 103.418 33.0187 102.671 33.112C102.428 33.1307 102.12 33.1027 101.747 33.028C101.374 32.972 101 32.7947 100.627 32.496C100.272 32.1787 99.9829 31.684 99.7589 31.012C99.5349 30.3213 99.4415 29.3787 99.4789 28.184C99.4975 27.9787 99.4975 27.5773 99.4789 26.98C99.4789 26.3827 99.4695 25.6733 99.4509 24.852C99.4509 24.0307 99.4415 23.1813 99.4229 22.304C99.4229 21.4267 99.4135 20.6147 99.3949 19.868C99.3949 19.1027 99.3855 18.4867 99.3669 18.02C99.3669 17.5347 99.3669 17.292 99.3669 17.292C99.5349 17.2733 99.8149 17.2547 100.207 17.236C100.618 17.1987 101.066 17.1987 101.551 17.236C102.036 17.2733 102.503 17.3667 102.951 17.516C103.418 17.6467 103.81 17.8613 104.127 18.16C104.463 18.4587 104.659 18.86 104.715 19.364C104.808 20.0733 104.846 21.0253 104.827 22.22C104.808 23.396 104.78 24.684 104.743 26.084C104.706 27.4653 104.715 28.828 104.771 30.172Z" fill="#FA6B1C"/>
<defs>
<clipPath id="clip0_1_20">
<rect width="50" height="50" fill="white" transform="translate(0 6)"/>
</clipPath>
</defs>
</svg>
