<svg width="55" height="55" viewBox="0 0 55 55" fill="none" xmlns="http://www.w3.org/2000/svg">
<path d="M18.3334 16.0029C17.7256 16.0029 17.1427 16.2444 16.713 16.6741C16.2832 17.1039 16.0417 17.6868 16.0417 18.2946C16.0417 18.9024 16.2832 19.4853 16.713 19.915C17.1427 20.3448 17.7256 20.5863 18.3334 20.5863H36.6667C37.2745 20.5863 37.8574 20.3448 38.2872 19.915C38.717 19.4853 38.9584 18.9024 38.9584 18.2946C38.9584 17.6868 38.717 17.1039 38.2872 16.6741C37.8574 16.2444 37.2745 16.0029 36.6667 16.0029H18.3334ZM16.0417 27.5002C16.0417 26.8924 16.2832 26.3095 16.713 25.8798C17.1427 25.45 17.7256 25.2086 18.3334 25.2086H36.6667C37.2745 25.2086 37.8574 25.45 38.2872 25.8798C38.717 26.3095 38.9584 26.8924 38.9584 27.5002C38.9584 28.108 38.717 28.6909 38.2872 29.1207C37.8574 29.5504 37.2745 29.7919 36.6667 29.7919H18.3334C17.7256 29.7919 17.1427 29.5504 16.713 29.1207C16.2832 28.6909 16.0417 28.108 16.0417 27.5002ZM18.3334 34.4142C17.7256 34.4142 17.1427 34.6556 16.713 35.0854C16.2832 35.5152 16.0417 36.0981 16.0417 36.7058C16.0417 37.3136 16.2832 37.8965 16.713 38.3263C17.1427 38.7561 17.7256 38.9975 18.3334 38.9975H36.6667C37.2745 38.9975 37.8574 38.7561 38.2872 38.3263C38.717 37.8965 38.9584 37.3136 38.9584 36.7058C38.9584 36.0981 38.717 35.5152 38.2872 35.0854C37.8574 34.6556 37.2745 34.4142 36.6667 34.4142H18.3334Z" fill="#5F5F5F"/>
<path fill-rule="evenodd" clip-rule="evenodd" d="M50.4167 27.5002C50.4167 40.157 40.1569 50.4168 27.5 50.4168C14.8432 50.4168 4.58337 40.157 4.58337 27.5002C4.58337 14.8433 14.8432 4.5835 27.5 4.5835C40.1569 4.5835 50.4167 14.8433 50.4167 27.5002ZM45.8334 27.5002C45.8334 32.3625 43.9018 37.0256 40.4637 40.4638C37.0255 43.902 32.3623 45.8335 27.5 45.8335C22.6377 45.8335 17.9746 43.902 14.5364 40.4638C11.0982 37.0256 9.16671 32.3625 9.16671 27.5002C9.16671 22.6379 11.0982 17.9747 14.5364 14.5365C17.9746 11.0984 22.6377 9.16683 27.5 9.16683C32.3623 9.16683 37.0255 11.0984 40.4637 14.5365C43.9018 17.9747 45.8334 22.6379 45.8334 27.5002Z" fill="#5F5F5F"/>
</svg>
